<svg xmlns="http://www.w3.org/2000/svg" xmlns:xlink="http://www.w3.org/1999/xlink" width="2000" zoomAndPan="magnify" viewBox="0 0 1500 1499.999933" height="2000" preserveAspectRatio="xMidYMid meet" version="1.0"><defs><g/><clipPath id="78cbe12ca6"><rect x="0" width="822" y="0" height="763"/></clipPath><clipPath id="09342aba09"><rect x="0" width="395" y="0" height="603"/></clipPath><clipPath id="9895217de1"><path d="M 237.851562 609.878906 L 1152.101562 609.878906 L 1152.101562 1113.128906 L 237.851562 1113.128906 Z M 237.851562 609.878906 " clip-rule="nonzero"/></clipPath><clipPath id="9b05b08e5d"><path d="M 1.121094 0.878906 L 915.101562 0.878906 L 915.101562 504.128906 L 1.121094 504.128906 Z M 1.121094 0.878906 " clip-rule="nonzero"/></clipPath><clipPath id="b72d570781"><rect x="0" width="916" y="0" height="505"/></clipPath></defs><rect x="-150" width="1800" fill="#ffffff" y="-149.999993" height="1799.99992" fill-opacity="0"/><rect x="-150" width="1800" fill="#ffffff" y="-149.999993" height="1799.99992" fill-opacity="0"/><g transform="matrix(1, 0, 0, 1, 260, 242)"><g clip-path="url(#78cbe12ca6)"><g fill="#8a7d6e" fill-opacity="1"><g transform="translate(111.113485, 506.709625)"><g><path d="M 705.5 -367.046875 C 705.082031 -366.191406 703.921875 -365.976562 702.015625 -366.40625 C 700.109375 -366.832031 698.726562 -367.253906 697.875 -367.671875 C 695.757812 -368.515625 693.21875 -369.46875 690.25 -370.53125 C 687.289062 -371.59375 683.273438 -372.125 678.203125 -372.125 C 662.535156 -372.125 645.382812 -366.300781 626.75 -354.65625 C 608.125 -343.007812 589.070312 -328.082031 569.59375 -309.875 C 550.125 -291.675781 531.179688 -272.3125 512.765625 -251.78125 C 494.359375 -231.25 477.535156 -212.09375 462.296875 -194.3125 C 422.921875 -148.164062 387.144531 -109.003906 354.96875 -76.828125 C 322.800781 -44.660156 293.0625 -17.46875 265.75 4.75 C 238.445312 26.976562 211.882812 45.71875 186.0625 60.96875 C 158.539062 77.894531 131.125 91.117188 103.8125 100.640625 C 76.507812 110.171875 51.21875 116.734375 27.9375 120.328125 C 4.65625 123.929688 -15.238281 125.3125 -31.75 124.46875 C -57.15625 122.769531 -75.460938 116.097656 -86.671875 104.453125 C -97.890625 92.816406 -103.5 77.257812 -103.5 57.78125 C -103.5 40.851562 -97.992188 23.179688 -86.984375 4.765625 C -75.984375 -13.648438 -60.425781 -31.851562 -40.3125 -49.84375 C -20.207031 -67.84375 3.28125 -84.351562 30.15625 -99.375 C 57.039062 -114.40625 86.359375 -127 118.109375 -137.15625 C 141.816406 -144.78125 167.429688 -150.707031 194.953125 -154.9375 C 176.742188 -160.863281 163.507812 -171.128906 155.25 -185.734375 C 147 -200.347656 142.875 -216.117188 142.875 -233.046875 C 142.875 -262.253906 150.597656 -288.179688 166.046875 -310.828125 C 181.503906 -333.484375 202.359375 -352.535156 228.609375 -367.984375 C 254.859375 -383.441406 284.804688 -395.085938 318.453125 -402.921875 C 352.109375 -410.753906 386.929688 -414.671875 422.921875 -414.671875 C 463.140625 -414.671875 499.441406 -412.867188 531.828125 -409.265625 C 564.210938 -405.671875 590.351562 -402.179688 610.25 -398.796875 C 631.84375 -394.554688 649.832031 -390.210938 664.21875 -385.765625 C 678.613281 -381.328125 689.832031 -377.414062 697.875 -374.03125 C 703.800781 -371.90625 706.34375 -369.578125 705.5 -367.046875 Z M 663.59375 -378.46875 C 644.539062 -383.125 619.03125 -387.144531 587.0625 -390.53125 C 555.101562 -393.914062 512.664062 -395.609375 459.75 -395.609375 C 416.144531 -395.609375 375.710938 -392.222656 338.453125 -385.453125 C 301.203125 -378.679688 268.609375 -368.519531 240.671875 -354.96875 C 212.734375 -341.425781 191.035156 -324.492188 175.578125 -304.171875 C 160.128906 -283.847656 152.40625 -259.929688 152.40625 -232.421875 C 152.40625 -213.367188 157.800781 -196.644531 168.59375 -182.25 C 179.394531 -167.851562 194.953125 -159.597656 215.265625 -157.484375 C 243.210938 -161.296875 270.414062 -163.519531 296.875 -164.15625 C 323.332031 -164.789062 345.023438 -163.625 361.953125 -160.65625 C 366.191406 -160.238281 370.003906 -159.5 373.390625 -158.4375 C 376.773438 -157.375 378.046875 -155.785156 377.203125 -153.671875 C 376.773438 -152.828125 375.289062 -152.507812 372.75 -152.71875 C 370.207031 -152.925781 367.242188 -153.242188 363.859375 -153.671875 C 327.878906 -157.054688 288.613281 -155.570312 246.0625 -149.21875 C 203.519531 -142.875 162.5625 -133.351562 123.1875 -120.65625 C 93.976562 -111.34375 66.25 -99.695312 40 -85.71875 C 13.757812 -71.75 -9.410156 -56.613281 -29.515625 -40.3125 C -49.628906 -24.019531 -65.398438 -7.410156 -76.828125 9.515625 C -88.265625 26.453125 -93.984375 42.539062 -93.984375 57.78125 C -93.984375 73.875 -89.007812 87.101562 -79.0625 97.46875 C -69.113281 107.84375 -53.554688 113.453125 -32.390625 114.296875 C -3.597656 115.148438 28.046875 108.585938 62.546875 94.609375 C 97.046875 80.640625 136.097656 58.835938 179.703125 29.203125 C 204.265625 12.273438 229.140625 -6.984375 254.328125 -28.578125 C 279.515625 -50.171875 306.609375 -75.039062 335.609375 -103.1875 C 364.609375 -131.34375 396.890625 -163.203125 432.453125 -198.765625 C 460.804688 -227.128906 488.632812 -254.222656 515.9375 -280.046875 C 543.25 -305.867188 569.5 -327.671875 594.6875 -345.453125 C 619.875 -363.234375 642.84375 -374.238281 663.59375 -378.46875 Z M 663.59375 -378.46875 "/></g></g></g></g></g><g transform="matrix(1, 0, 0, 1, 687, 668)"><g clip-path="url(#09342aba09)"><g fill="#8a7d6e" fill-opacity="1"><g transform="translate(0.458491, 484.63574)"><g><path d="M 14.0625 -468.5625 L 68.40625 -468.5625 C 82.15625 -468.5625 97.304688 -469.34375 113.859375 -470.90625 C 130.410156 -472.46875 146.960938 -474.03125 163.515625 -475.59375 C 180.078125 -477.15625 195.234375 -477.9375 208.984375 -477.9375 C 225.535156 -477.9375 241.382812 -476.53125 256.53125 -473.71875 C 271.6875 -470.90625 285.195312 -466.140625 297.0625 -459.421875 C 308.9375 -452.703125 318.304688 -443.875 325.171875 -432.9375 C 332.046875 -422.007812 335.484375 -408.269531 335.484375 -391.71875 C 335.484375 -374.226562 331.65625 -359.234375 324 -346.734375 C 316.351562 -334.242188 306.203125 -323.546875 293.546875 -314.640625 C 280.898438 -305.734375 267.078125 -298.15625 252.078125 -291.90625 C 237.085938 -285.664062 222.09375 -280.046875 207.09375 -275.046875 C 192.101562 -270.046875 178.28125 -265.28125 165.625 -260.75 C 152.976562 -256.21875 142.828125 -251.296875 135.171875 -245.984375 C 127.523438 -240.679688 123.703125 -234.28125 123.703125 -226.78125 C 123.703125 -221.46875 125.265625 -218.109375 128.390625 -216.703125 C 131.515625 -215.304688 134.476562 -214.609375 137.28125 -214.609375 C 143.84375 -214.609375 151.890625 -217.023438 161.421875 -221.859375 C 170.953125 -226.703125 181.804688 -231.46875 193.984375 -236.15625 C 206.171875 -240.84375 219.757812 -243.1875 234.75 -243.1875 C 258.800781 -243.1875 280.664062 -238.34375 300.34375 -228.65625 C 320.03125 -218.976562 335.726562 -205.390625 347.4375 -187.890625 C 359.15625 -170.398438 365.015625 -149.785156 365.015625 -126.046875 C 365.015625 -99.179688 359 -75.515625 346.96875 -55.046875 C 334.945312 -34.585938 317.375 -18.734375 294.25 -7.484375 C 271.132812 3.753906 242.867188 9.375 209.453125 9.375 C 191.328125 9.375 175 8.59375 160.46875 7.03125 C 145.945312 5.46875 131.582031 3.90625 117.375 2.34375 C 103.164062 0.78125 87.46875 0 70.28125 0 L 14.0625 0 L 14.0625 -4.6875 C 27.488281 -4.6875 37.25 -8.742188 43.34375 -16.859375 C 49.4375 -24.984375 53.265625 -38.257812 54.828125 -56.6875 C 56.390625 -75.125 57.171875 -99.648438 57.171875 -130.265625 L 57.171875 -338.296875 C 57.171875 -369.222656 56.390625 -393.820312 54.828125 -412.09375 C 53.265625 -430.375 49.4375 -443.570312 43.34375 -451.6875 C 37.25 -459.8125 27.488281 -463.875 14.0625 -463.875 Z M 97 -458.25 L 97 -12.1875 C 111.363281 -7.1875 124.945312 -3.4375 137.75 -0.9375 C 150.5625 1.5625 165.554688 2.8125 182.734375 2.8125 C 211.785156 2.8125 236.929688 -2.257812 258.171875 -12.40625 C 279.421875 -22.5625 295.820312 -37.007812 307.375 -55.75 C 318.9375 -74.5 324.71875 -96.835938 324.71875 -122.765625 C 324.71875 -136.816406 322.765625 -150.632812 318.859375 -164.21875 C 314.953125 -177.8125 309.171875 -190.226562 301.515625 -201.46875 C 293.867188 -212.71875 284.421875 -221.625 273.171875 -228.1875 C 261.921875 -234.75 248.957031 -238.03125 234.28125 -238.03125 C 221.164062 -238.03125 208.828125 -235.6875 197.265625 -231 C 185.703125 -226.3125 174.84375 -221.625 164.6875 -216.9375 C 154.539062 -212.257812 144.785156 -209.921875 135.421875 -209.921875 C 131.359375 -209.921875 127.609375 -211.164062 124.171875 -213.65625 C 120.734375 -216.15625 119.015625 -220.21875 119.015625 -225.84375 C 119.015625 -236.15625 123.226562 -245.210938 131.65625 -253.015625 C 140.09375 -260.828125 151.023438 -268.171875 164.453125 -275.046875 C 177.890625 -281.921875 192.101562 -288.867188 207.09375 -295.890625 C 222.09375 -302.921875 236.304688 -310.804688 249.734375 -319.546875 C 263.171875 -328.296875 274.101562 -338.453125 282.53125 -350.015625 C 290.96875 -361.578125 295.1875 -375.164062 295.1875 -390.78125 C 295.1875 -410.144531 289.71875 -425.757812 278.78125 -437.625 C 267.851562 -449.5 253.722656 -458.09375 236.390625 -463.40625 C 219.054688 -468.71875 200.859375 -471.375 181.796875 -471.375 C 166.492188 -471.375 151.96875 -470.28125 138.21875 -468.09375 C 124.476562 -465.90625 110.738281 -462.625 97 -458.25 Z M 97 -458.25 "/></g></g></g></g></g><g clip-path="url(#9895217de1)"><g transform="matrix(1, 0, 0, 1, 237, 609)"><g clip-path="url(#b72d570781)"><g clip-path="url(#9b05b08e5d)"><path fill="#8a7d6e" d="M 756.375 278.316406 C 761.953125 279.945312 767.691406 281.1875 773.539062 282.019531 C 779.308594 282.835938 785.179688 283.261719 791.113281 283.261719 C 825.371094 283.261719 856.394531 269.375 878.847656 246.921875 C 901.296875 224.472656 915.183594 193.457031 915.183594 159.191406 C 915.183594 124.933594 901.296875 93.910156 878.847656 71.460938 C 856.394531 49.007812 825.371094 35.121094 791.113281 35.121094 C 772.074219 35.121094 754.023438 39.421875 737.882812 47.09375 C 721.125 55.070312 706.433594 66.691406 694.839844 80.9375 C 659.738281 123.472656 631.136719 168.113281 602.5625 212.722656 C 543.675781 304.640625 484.863281 396.421875 369.929688 468.128906 C 359.429688 473.851562 348.464844 478.832031 337.101562 482.992188 C 310.789062 492.636719 282.351562 497.902344 252.671875 497.902344 C 184.910156 497.902344 123.5625 470.433594 79.164062 426.035156 C 34.757812 381.628906 7.300781 320.285156 7.300781 252.53125 C 7.300781 184.765625 34.765625 123.421875 79.164062 79.023438 C 121.167969 37.019531 178.324219 10.179688 241.734375 7.398438 C 236.746094 11.003906 233.5 16.875 233.5 23.503906 C 233.5 34.480469 242.390625 43.371094 253.363281 43.371094 C 264.339844 43.371094 273.230469 34.480469 273.230469 23.503906 C 273.230469 13.957031 266.484375 5.976562 257.503906 4.070312 L 257.554688 0.953125 L 252.6875 0.894531 C 183.199219 0.894531 120.285156 29.0625 74.746094 74.597656 C 29.210938 120.136719 1.042969 183.042969 1.042969 252.539062 C 1.042969 322.023438 29.210938 384.9375 74.746094 430.476562 C 120.285156 476.011719 183.191406 504.179688 252.6875 504.179688 C 283.09375 504.179688 312.265625 498.777344 339.269531 488.886719 C 367.257812 478.628906 392.921875 463.542969 415.242188 444.632812 C 504.554688 377.300781 556.160156 296.761719 607.832031 216.117188 C 636.335938 171.632812 664.855469 127.109375 699.679688 84.910156 L 697.273438 82.929688 L 699.695312 84.902344 C 710.699219 71.378906 724.644531 60.347656 740.5625 52.777344 C 755.871094 45.488281 773.023438 41.40625 791.128906 41.40625 C 823.664062 41.40625 853.117188 54.59375 874.4375 75.914062 C 895.757812 97.234375 908.941406 126.6875 908.941406 159.21875 C 908.941406 191.753906 895.757812 221.207031 874.4375 242.527344 C 853.117188 263.847656 823.664062 277.03125 791.128906 277.03125 C 785.417969 277.03125 779.839844 276.632812 774.417969 275.863281 C 768.839844 275.078125 763.398438 273.894531 758.136719 272.359375 L 756.398438 278.355469 Z M 756.375 278.316406 " fill-opacity="1" fill-rule="nonzero"/></g></g></g></g></svg>